<?xml version="1.0" encoding="utf-8"?>
<!-- Generator: Adobe Illustrator 25.4.1, SVG Export Plug-In . SVG Version: 6.00 Build 0)  -->
<svg version="1.1" id="Слой_1" xmlns="http://www.w3.org/2000/svg" xmlns:xlink="http://www.w3.org/1999/xlink" x="0px" y="0px"
	 viewBox="0 0 225 67.6" style="enable-background:new 0 0 225 67.6;" xml:space="preserve">
<style type="text/css">
	.st0{fill:#3B3C93;}
	.st1{fill-rule:evenodd;clip-rule:evenodd;fill:#3B3C93;}
</style>
<g id="guides">
</g>
<g id="Layer_1">
	<g>
		<g>
			<g>
				<rect x="71.5" class="st0" width="2.1" height="67.6"/>
			</g>
			<g>
				<polygon class="st1" points="38.2,0.3 42.6,0.3 42.6,5.9 46.3,5.9 46.3,0.3 51.3,0.3 51.3,5.9 55.6,5.9 55.6,0.3 60.3,0.3 
					60.3,25.3 51.1,25.3 51.1,20.1 46.3,20.1 46.3,25.2 38.2,25.3 				"/>
				<polygon class="st1" points="0.1,0.3 9.2,0.3 9.2,14.8 22.1,14.8 22.1,25.3 0,25.3 				"/>
				<polygon class="st1" points="46.2,30.5 46.2,39.8 38.2,39.8 38.2,52.9 23.6,52.9 23.7,39.9 13.5,39.9 13.5,30.5 0,30.5 0,33.5 
					0,35 0.1,36.3 0.2,37.6 0.3,38.9 0.6,40.2 0.7,41.3 1,42.5 1.2,43.6 1.5,44.6 1.9,45.6 2.3,46.6 2.8,47.6 3.2,48.5 3.7,49.3 
					4.2,50.2 4.8,51.1 5.4,51.9 6,52.7 6.6,53.4 7.3,54.1 8.1,54.9 8.7,55.5 9.5,56.2 10.3,56.9 11.2,57.4 11.9,58.1 12.8,58.6 
					13.8,59.2 14.7,59.7 15.6,60.3 16.6,60.8 17.6,61.4 18.7,61.9 18.8,61.9 19.5,62.3 20.1,62.6 20.9,62.9 21.6,63.3 22.2,63.6 
					23,64 23.8,64.4 24.4,64.7 25.2,65 26,65.4 26.8,65.7 27.5,66 29.1,66.7 30.8,67.4 32.3,66.7 34,66 35.5,65.4 36.9,64.7 
					38.5,64 39.9,63.3 41.3,62.6 42.7,61.9 44,61.3 45.2,60.5 46.6,59.7 47.7,59 48.9,58.2 50,57.4 51,56.5 52,55.6 53,54.6 
					53.9,53.8 54.8,52.7 55.5,51.7 56.2,50.6 57,49.3 57.5,48.1 58.1,46.9 58.6,45.5 59.1,44.1 59.4,42.6 59.7,41 60,39.5 
					60.2,37.7 60.3,36 60.3,34.1 60.3,30.5 				"/>
			</g>
		</g>
		<g>
			<path class="st0" d="M84.6,12.5c1.7,0.2,3-0.9,3-5V2.8h7.9v11h-1.7V4h-4.5v3.8c0,5.1-2.1,6.3-4.6,6V12.5z"/>
			<path class="st0" d="M105.8,2.8h1.8l-4.2,9.1c-1,2.1-2.2,2.1-3.2,2.1c-0.6,0-0.9,0-1.4-0.1v-1.3c0.4,0.1,0.8,0.2,1.2,0.2
				c0.7,0,1.4-0.1,2-1.7l-4.8-8.3h2.1l3.7,6.6L105.8,2.8z"/>
			<path class="st0" d="M117,12.5V2.8h1.7v9.7h1.8l-0.1,3.8h-1.4v-2.4h-9.8v-11h1.7v9.7h6.3V12.5z"/>
			<path class="st0" d="M123.9,7.2h3.7c1.5,0,4.1,0.4,4.1,3.3s-2.8,3.2-4.1,3.2h-5.3v-11h1.7C123.9,2.8,123.9,7.2,123.9,7.2z
				 M123.9,12.5h3.4c0.3,0,2.5-0.1,2.5-2c0-1-0.4-2-2.8-2h-3.2V12.5z"/>
			<path class="st0" d="M140.9,2.8h2.1l-6,5.1l6.3,5.9h-2.2L135.3,8v5.8h-1.7v-11h1.7v5L140.9,2.8z"/>
			<path class="st0" d="M153.2,2.8h1.7v11h-1.7v-9l-6.6,9h-1.7v-11h1.7v8.8L153.2,2.8z"/>
			<path class="st0" d="M166.4,2.8h1.7v11h-1.7v-9l-6.6,9h-1.7v-11h1.7v8.8L166.4,2.8z M161.3,0.3c0,0.7,0.6,1.2,1.8,1.2
				c1.2,0,1.7-0.7,1.8-1.2h1.3c-0.4,1.5-1.7,2.1-3.1,2.1c-1.4,0-2.7-0.6-3.1-2.1H161.3z"/>
			<path class="st0" d="M87.6,31.5h-1.8v-11h1.7v4.5h6.3v-4.5h1.7v11h-1.7v-5.2h-6.3v5.2H87.6z"/>
			<path class="st0" d="M98.8,31.5H97l4.8-11h1.8l4.8,11h-1.8l-1.2-2.9H100L98.8,31.5z M104.9,27.4l-2.2-5.4l-2.2,5.4H104.9z"/>
			<path class="st0" d="M117.8,30.3v-9.7h1.7v9.7h1.8l-0.1,3.8h-1.4v-2.4h-9.8v-11h1.7v9.7h6.3V30.3z"/>
			<path class="st0" d="M124.7,20.6v11H123v-11C123,20.6,124.7,20.6,124.7,20.6z"/>
			<path class="st0" d="M133,20.2c2.8,0,6,1.3,6,5.9c0,5.8-5.2,5.9-6,5.9c-0.8,0-6-0.1-6-5.9C127,22.2,129.4,20.2,133,20.2z
				 M133,30.6c0.9,0,4.2-0.1,4.2-4.5c0-2.5-1.3-4.5-4.2-4.5c-3.9,0-4.2,3.4-4.2,4.5C128.8,27.8,129.4,30.6,133,30.6z"/>
			<path class="st0" d="M142.9,31.5h-1.7v-11h1.7v4.5h6.3v-4.5h1.7v11h-1.7v-5.2h-6.3V31.5z"/>
			<path class="st0" d="M154.2,31.5h-1.8l4.8-11h1.8l4.8,11h-1.8l-1.2-2.9h-5.3L154.2,31.5z M160.2,27.4L158,22l-2.2,5.4H160.2z"/>
			<path class="st0" d="M163.8,30.3c1.7,0.2,3-0.9,3-5v-4.8h7.9v11H173v-9.7h-4.5v3.8c0,5.1-2.1,6.3-4.6,6V30.3z"/>
			<path class="st0" d="M179.4,25h3.7c1.5,0,4.1,0.4,4.1,3.3s-2.8,3.2-4.1,3.2h-5.4v-11h1.7V25H179.4z M179.4,30.3h3.4
				c0.3,0,2.5-0.1,2.5-2c0-1-0.4-2-2.8-2h-3.2L179.4,30.3L179.4,30.3z"/>
			<path class="st0" d="M190.8,31.5h-1.7v-11h1.7v4.5h6.3v-4.5h1.7v11h-1.7v-5.2h-6.3V31.5z"/>
			<path class="st0" d="M210.2,20.6h1.7v11h-1.7v-9l-6.6,9h-1.7v-11h1.7v8.8L210.2,20.6z"/>
			<path class="st0" d="M223.3,20.6h1.7v11h-1.7v-9l-6.6,9H215v-11h1.7v8.8L223.3,20.6z M218.3,18c0,0.7,0.6,1.2,1.8,1.2
				c1.2,0,1.7-0.7,1.8-1.2h1.3c-0.4,1.5-1.7,2.1-3.1,2.1c-1.4,0-2.7-0.6-3.1-2.1H218.3z"/>
			<path class="st0" d="M84.6,39.6v-1.2h9.8v1.2h-4.1v9.7h-1.7v-9.7H84.6z"/>
			<path class="st0" d="M104.4,43v1.2h-6.5v3.9h7.4v1.2h-9.2v-11h9v1.2h-7.3V43H104.4z"/>
			<path class="st0" d="M114.2,38.3h2.1l-4.2,5.4l4.4,5.6h-2.2l-3.3-4.5l-3.3,4.5h-2.2l4.4-5.6l-4.2-5.4h2.1l3.1,4.3L114.2,38.3z"/>
			<path class="st0" d="M119.8,49.3h-1.7v-11h1.7v4.5h6.3v-4.5h1.7v11h-1.7v-5.2h-6.3V49.3z"/>
			<path class="st0" d="M132.4,38.3v11h-1.7v-11C130.8,38.3,132.4,38.3,132.4,38.3z"/>
			<path class="st0" d="M136.7,38.3v3.2c0,1.7,1,1.9,3,1.9c0.7,0,1.9-0.1,2.4-0.1v-5h1.7v11h-1.7v-4.8c-0.7,0-2.1,0.1-2.8,0.1
				c-3.1,0-4.4-0.6-4.4-2.9v-3.4C135,38.3,136.7,38.3,136.7,38.3z"/>
			<path class="st0" d="M148.6,49.3h-1.7v-11h1.7v4.5h6.3v-4.5h1.7v11h-1.7v-5.2h-6.3V49.3z"/>
			<path class="st0" d="M168,38.3h1.7v11H168v-9l-6.6,9h-1.7v-11h1.7v8.8L168,38.3z"/>
			<path class="st0" d="M181.1,38.3h1.7v11h-1.7v-9l-6.6,9h-1.7v-11h1.7v8.8L181.1,38.3z M176,35.8c0,0.7,0.6,1.2,1.8,1.2
				c1.2,0,1.7-0.7,1.8-1.2h1.3c-0.4,1.5-1.7,2.1-3.1,2.1c-1.4,0-2.7-0.6-3.1-2.1H176z"/>
			<path class="st0" d="M93.1,56.1h1.8l-4.2,9.1c-1,2.1-2.2,2.1-3.2,2.1c-0.6,0-0.9,0-1.4-0.1v-1.3c0.4,0.1,0.8,0.2,1.2,0.2
				c0.7,0,1.4-0.1,2-1.7l-4.8-8.3h2.1l3.7,6.6L93.1,56.1z"/>
			<path class="st0" d="M98.1,67.1h-1.7v-11h1.7v4.5h6.3v-4.5h1.7v11h-1.7v-5.2h-6.3V67.1z"/>
			<path class="st0" d="M110.8,56.1v11h-1.8v-11H110.8z"/>
			<path class="st0" d="M119.4,56.1c3.1,0,3.8,1.5,3.8,2.8s-0.9,2.2-2.1,2.3l0,0c1,0.1,2.7,0.8,2.7,2.8c0,1.5-0.9,3.1-4.4,3.1h-5.3
				v-11H119.4z M115.5,60.7h3.4c1.9,0,2.4-0.8,2.4-1.7c0-0.7-0.3-1.7-2.4-1.7h-3.4V60.7z M115.5,65.8h3.5c1.2,0,2.9-0.1,2.9-2
				c0-1.4-1.1-1.9-2.9-1.9h-3.5V65.8z"/>
			<path class="st0" d="M134.4,60.8v1.2h-6.5v3.9h7.4v1.2h-9.2v-11h9v1.1h-7.2v3.4h6.5V60.8z"/>
			<path class="st0" d="M142.3,56.1c2.5,0,4.2,0.9,4.2,3.2c0,2.1-1.2,3.4-4.4,3.4h-3.2v4.4h-1.7v-11h5.1V56.1z M138.8,61.5h3.1
				c2,0,2.9-0.8,2.9-2.2c0-1.3-0.9-2-2.9-2h-3.1V61.5z"/>
			<path class="st0" d="M159.2,63.5c-0.2,1.5-1.3,4-5.3,4c-3.8,0-6-2.1-6-5.6c0-5.9,4.9-6,5.9-6c4,0,5,2.1,5.2,3.8h-1.7
				c-0.1-0.8-0.7-2.4-3.5-2.4c-3.1,0-4.1,2.3-4.1,4.8c0,2.5,1.5,4.4,4.2,4.4c2,0,3.4-1.2,3.5-2.8h1.8V63.5z"/>
			<path class="st0" d="M169.7,56.1h1.7v11h-1.7v-9l-6.6,9h-1.7v-11h1.7v8.8L169.7,56.1z"/>
			<path class="st0" d="M173.1,57.3v-1.2h9.8v1.2h-4.1V67h-1.7v-9.7H173.1z"/>
			<path class="st0" d="M193,60.8v1.2h-6.5v3.9h7.4v1.2h-9.2v-11h9v1.1h-7.3v3.4h6.6V60.8z"/>
			<path class="st0" d="M194.5,57.3v-1.2h9.8v1.2h-4.1V67h-1.7v-9.7H194.5z"/>
		</g>
	</g>
</g>
</svg>
